<svg xmlns="http://www.w3.org/2000/svg" width="244.337" height="244.337" viewBox="0 0 244.337 244.337">
  <g id="Virus_Symble" data-name="Virus Symble" transform="translate(-388.213 -200.027) rotate(7)">
    <g id="Group_3" data-name="Group 3" transform="translate(436.217 147.968)">
      <path id="Path_2" data-name="Path 2" d="M455.179,321.926a13.221,13.221,0,0,0,23.03-6.96,8.371,8.371,0,0,1,3.49-5.827l1.142-.786a8.168,8.168,0,0,1,10.453.96q2.075,2.11,4.323,4.059a6.2,6.2,0,0,1,1.261,7.975l-.365.586a6.2,6.2,0,0,1-3.848,2.742,7.231,7.231,0,1,0,8.745,5.488,6.327,6.327,0,0,1,.748-4.721,6.181,6.181,0,0,1,8.088-2.2,73.519,73.519,0,0,0,7.154,3.181,9.209,9.209,0,0,1,5.663,10.3l0,.016a9.351,9.351,0,0,1-4.173,6.149,13.23,13.23,0,1,0,17.841,3.3,9.264,9.264,0,0,1,7.416-14.832q2.532-.008,5.038-.189a6.2,6.2,0,0,1,6.537,4.748l.152.651a6.2,6.2,0,0,1-.782,4.659,7.232,7.232,0,1,0,9.869-2.422,5.863,5.863,0,0,1-2.614-3.747l0-.008a6.179,6.179,0,0,1,4.155-7.275,73.662,73.662,0,0,0,7.775-3.015,8.274,8.274,0,0,1,10.3,2.73l.8,1.159a8.371,8.371,0,0,1,1.181,6.688,13.23,13.23,0,1,0,14.78-10.078,8.594,8.594,0,0,1-5.951-3.516l-.78-1.133a8.167,8.167,0,0,1,.96-10.453q2.11-2.074,4.059-4.323a6.2,6.2,0,0,1,7.975-1.262l.586.365a6.2,6.2,0,0,1,2.742,3.847,7.231,7.231,0,1,0,5.488-8.745,6.326,6.326,0,0,1-4.72-.748,6.182,6.182,0,0,1-2.2-8.088,73.384,73.384,0,0,0,3.182-7.154,9.209,9.209,0,0,1,10.3-5.663l.016,0a9.353,9.353,0,0,1,6.149,4.173,13.23,13.23,0,1,0,3.3-17.841,9.263,9.263,0,0,1-14.832-7.416q-.008-2.532-.189-5.038a6.2,6.2,0,0,1,4.747-6.537l.651-.152a6.2,6.2,0,0,1,4.66.782,7.232,7.232,0,1,0-2.422-9.869,5.864,5.864,0,0,1-3.747,2.614l-.008,0a6.179,6.179,0,0,1-7.275-4.155A73.947,73.947,0,0,0,613,227.164a8.566,8.566,0,0,1,3.057-10.527l.713-.491a8.8,8.8,0,0,1,6.946-1.231,13.227,13.227,0,1,0-4.636-23.8c-2.948,2.029-3.913,5.206-4.024,8.557a8.784,8.784,0,0,1-3.693,7.036l-.875.6a8.495,8.495,0,0,1-10.285-.462c-2.109-1.779-4.358-3.495-6.13-5.029a6.2,6.2,0,0,1-1.261-7.975l.365-.586a6.2,6.2,0,0,1,3.848-2.742,7.232,7.232,0,1,0-8.745-5.488,6.324,6.324,0,0,1-.748,4.72,6.181,6.181,0,0,1-8.088,2.2,73.5,73.5,0,0,0-7.154-3.181,9.207,9.207,0,0,1-5.663-10.3l0-.017a9.351,9.351,0,0,1,4.173-6.148,13.23,13.23,0,1,0-17.841-3.3,9.263,9.263,0,0,1-7.416,14.831q-2.532.008-5.038.19a6.2,6.2,0,0,1-6.537-4.748l-.152-.651a6.2,6.2,0,0,1,.783-4.659,7.232,7.232,0,1,0-9.869,2.422,5.864,5.864,0,0,1,2.614,3.747l0,.007a6.18,6.18,0,0,1-4.155,7.276,73.793,73.793,0,0,0-7.775,3.015,8.274,8.274,0,0,1-10.3-2.729l-.8-1.159a8.373,8.373,0,0,1-1.181-6.688,13.23,13.23,0,1,0-14.779,10.078,8.6,8.6,0,0,1,5.951,3.516l.78,1.133a8.168,8.168,0,0,1-.96,10.453q-2.111,2.074-4.059,4.323a6.2,6.2,0,0,1-7.975,1.261l-.586-.364a6.2,6.2,0,0,1-2.742-3.848,7.231,7.231,0,1,0-5.488,8.745,6.324,6.324,0,0,1,4.72.748A6.181,6.181,0,0,1,480.2,224a73.525,73.525,0,0,0-3.181,7.154,9.21,9.21,0,0,1-10.3,5.663l-.016,0a9.351,9.351,0,0,1-6.148-4.173,13.23,13.23,0,1,0-3.3,17.841,9.263,9.263,0,0,1,14.832,7.416q.008,2.532.189,5.038a6.2,6.2,0,0,1-4.748,6.537l-.651.152a6.2,6.2,0,0,1-4.659-.782,7.231,7.231,0,1,0,2.422,9.87,5.86,5.86,0,0,1,3.747-2.615l.007,0a6.18,6.18,0,0,1,7.276,4.155,73.784,73.784,0,0,0,3.015,7.775,8.274,8.274,0,0,1-2.729,10.3l-1.15.791A8.6,8.6,0,0,1,468,300.277a13.224,13.224,0,0,0-12.819,21.648Z" transform="translate(-436.217 -147.968)" fill="#f89595"/>
      <g id="Group_2" data-name="Group 2" transform="translate(45.671 51.207)" style="mix-blend-mode: multiply;isolation: isolate">
        <path id="Path_3" data-name="Path 3" d="M636.08,249.7c-1.2,4.6-6.958,7.08-12.863,5.54s-9.72-6.516-8.52-11.116,6.959-7.078,12.863-5.539S637.279,245.1,636.08,249.7Z" transform="translate(-558.903 -238.127)" fill="#f89595" opacity="0.51"/>
        <path id="Path_4" data-name="Path 4" d="M651.284,425.217c-1.543-2.939.265-6.928,4.038-8.909s8.083-1.205,9.627,1.734-.265,6.928-4.038,8.909S652.827,428.157,651.284,425.217Z" transform="translate(-574.567 -314.634)" fill="#f89595" opacity="0.51"/>
        <path id="Path_5" data-name="Path 5" d="M660.237,306.414c3.076-1.25,6.869.937,8.475,4.886s.413,8.162-2.663,9.412-6.869-.937-8.474-4.886S657.162,307.664,660.237,306.414Z" transform="translate(-577.215 -267.478)" fill="#f89595" opacity="0.51"/>
        <path id="Path_6" data-name="Path 6" d="M553.3,277.524c1.26.7,1.556,2.575.659,4.193s-2.643,2.363-3.9,1.666-1.556-2.575-.661-4.193S552.042,276.827,553.3,277.524Z" transform="translate(-530.563 -255.035)" fill="#f89595" opacity="0.51"/>
        <path id="Path_7" data-name="Path 7" d="M728.075,315.063c-3.466,3.253-9.661,2.281-13.836-2.169s-4.749-10.695-1.283-13.947,9.661-2.28,13.836,2.171S731.542,311.811,728.075,315.063Z" transform="translate(-600.471 -263.573)" fill="#f89595" opacity="0.51"/>
        <path id="Path_8" data-name="Path 8" d="M539.144,388.475c-6.927,3.34-16.017-1.162-20.3-10.055s-2.148-18.809,4.779-22.149,16.016,1.163,20.3,10.055S546.071,385.136,539.144,388.475Z" transform="translate(-516.629 -288.694)" fill="#f89595" opacity="0.51"/>
        <path id="Path_9" data-name="Path 9" d="M609.349,352.278c-2.627,4.746-9.7,5.859-15.792,2.486s-8.9-9.956-6.276-14.7,9.7-5.86,15.792-2.485S611.977,347.532,609.349,352.278Z" transform="translate(-546.728 -280.25)" fill="#f89595" opacity="0.51"/>
      </g>
    </g>
    <path id="Path_10" data-name="Path 10" d="M686.418,371.355c1.5-.609,3.473.769,4.411,3.078s.485,4.673-1.013,5.283-3.473-.77-4.411-3.078S684.92,371.964,686.418,371.355Z" transform="translate(-107.448 -96.45)" fill="#e6e6e6" opacity="0.51"/>
    <path id="Path_11" data-name="Path 11" d="M609.2,289.614c1.5-.609,3.473.77,4.412,3.078s.484,4.674-1.013,5.283-3.473-.769-4.411-3.078S607.707,290.222,609.2,289.614Z" transform="translate(-74.088 -61.134)" fill="#e6e6e6" opacity="0.51"/>
    <path id="Path_12" data-name="Path 12" d="M684.935,274.94c1.5-.609,3.473.769,4.411,3.078s.484,4.673-1.013,5.283-3.472-.77-4.411-3.078S683.437,275.549,684.935,274.94Z" transform="translate(-106.807 -54.795)" fill="#e6e6e6" opacity="0.51"/>
  </g>
</svg>
