<svg xmlns="http://www.w3.org/2000/svg" width="107.467" height="189.864" viewBox="0 0 107.467 189.864">
  <g id="Avata" transform="translate(-950.153 -190.962)">
    <g id="Group_37" data-name="Group 37" transform="translate(950.153 190.962)">
      <path id="Path_126" data-name="Path 126" d="M989.552,479.331h41.211V375.6c-9.639-.124-24.815.412-24.815.412s-7.317,2.1-18.529,6.706c-3.943,1.618,1.133,27.892,2.061,53.477C990.335,459.778,990.15,469.593,989.552,479.331Z" transform="translate(-969.246 -289.467)" fill="#5c4a5f"/>
      <path id="Path_127" data-name="Path 127" d="M1129.723,487.494h21.121c-.485-4.087-1.473-14.481-2.992-39.938-2.928-49.088-15.24-56.671-15.24-56.671s-12.406,86.6-5.794,94.235A11.626,11.626,0,0,0,1129.723,487.494Z" transform="translate(-1043.377 -297.63)" fill="#5c4a5f"/>
      <path id="Path_128" data-name="Path 128" d="M971.215,487.494a11.621,11.621,0,0,0,2.9-2.375c6.612-7.635-5.794-94.235-5.794-94.235s-12.4,7.578-15.24,56.671c-1.5,25.891-2.443,36-2.932,39.938Z" transform="translate(-950.153 -297.63)" fill="#5c4a5f"/>
      <path id="Path_129" data-name="Path 129" d="M1089.748,479.331c-.6-9.739-.783-19.553.072-43.132.929-25.585,6-51.859,2.061-53.477-11.212-4.6-18.529-6.706-18.529-6.706s-15.177-.535-24.815-.412V479.331Z" transform="translate(-1002.646 -289.467)" fill="#5c4a5f"/>
      <g id="Group_36" data-name="Group 36" transform="translate(24.93)">
        <path id="Path_130" data-name="Path 130" d="M1062.878,356.151a13.785,13.785,0,0,1-5.072-2.25c-4.672-3.183-3.613-14.115-3.613-14.115l-8-1.321v-.111l-.338.056-.339-.056v.111l-8,1.321s1.059,10.933-3.613,14.115a13.783,13.783,0,0,1-5.071,2.25s4.826,11.223,16.682,11.834v.031c.115,0,.225-.011.339-.015s.223.014.338.015v-.031C1058.052,367.374,1062.878,356.151,1062.878,356.151Z" transform="translate(-1017.064 -269.602)" fill="#feb98f"/>
        <path id="Path_131" data-name="Path 131" d="M1063.771,344.771a33.328,33.328,0,0,1,.02-4.986l-8-1.321v-.111l-.338.056-.339-.056v.111l-8,1.321a32.245,32.245,0,0,1-.293,7.6C1050.621,347.646,1057.992,347.669,1063.771,344.771Z" transform="translate(-1026.662 -269.602)" fill="#c69c6d" opacity="0.5" style="isolation: isolate"/>
        <g id="Group_32" data-name="Group 32" transform="translate(0.886 38.133)">
          <path id="Path_132" data-name="Path 132" d="M1014.242,274.272s-2.9-2.066-5.714-1.441-3.654,4.8-2.576,8.265,5.667,6.679,8.571,3.6S1014.242,274.272,1014.242,274.272Z" transform="translate(-1005.499 -272.713)" fill="#feb98f"/>
          <path id="Path_133" data-name="Path 133" d="M1104.69,274.272s2.9-2.066,5.715-1.441,3.653,4.8,2.576,8.265-5.667,6.679-8.572,3.6S1104.69,274.272,1104.69,274.272Z" transform="translate(-1057.621 -272.713)" fill="#feb98f"/>
        </g>
        <path id="Path_134" data-name="Path 134" d="M1060.807,226.153c-1.2-4.449-10.322-13.478-19.844-12.785-9.522-.693-18.648,8.336-19.844,12.785-.89,3.308-4.186,33.15,3.592,42.2s16.253,9.052,16.253,9.052,8.475,0,16.252-9.052S1061.7,229.461,1060.807,226.153Z" transform="translate(-1012.17 -202.896)" fill="#feb98f"/>
        <g id="Group_33" data-name="Group 33" transform="translate(15.632 36.254)">
          <path id="Path_135" data-name="Path 135" d="M1037.44,270.2a5.465,5.465,0,0,1,4.263-1.5c2.8.192,3.9,1.982,3.253,2.378-.411.252-1.77-1.393-3.531-1.234a6.168,6.168,0,0,0-3.312,1.5C1037.7,271.807,1036.551,270.994,1037.44,270.2Z" transform="translate(-1037.111 -268.685)" fill="#171641"/>
          <ellipse id="Ellipse_9" data-name="Ellipse 9" cx="1.994" cy="2.36" rx="1.994" ry="2.36" transform="translate(2.018 4.912)" fill="#171641"/>
          <path id="Path_136" data-name="Path 136" d="M1084.032,270.2a5.467,5.467,0,0,0-4.263-1.5c-2.8.192-3.9,1.982-3.253,2.378.411.252,1.77-1.393,3.531-1.234a6.168,6.168,0,0,1,3.311,1.5C1083.77,271.807,1084.921,270.994,1084.032,270.2Z" transform="translate(-1058.039 -268.685)" fill="#171641"/>
          <ellipse id="Ellipse_10" data-name="Ellipse 10" cx="1.994" cy="2.36" rx="1.994" ry="2.36" transform="translate(20.315 4.912)" fill="#171641"/>
        </g>
        <path id="Path_137" data-name="Path 137" d="M1061.431,315.541a8.413,8.413,0,0,1-9.654,0c-1.7-1.227-3.49.972-2.094,3.12,1.357,2.087,4.357,3.007,6.813,2.964v0c.035,0,.073,0,.109,0s.073,0,.109,0v0c2.456.043,5.456-.877,6.812-2.964C1064.921,316.513,1063.126,314.314,1061.431,315.541Z" transform="translate(-1027.921 -257.243)" fill="#fff"/>
        <path id="Path_138" data-name="Path 138" d="M1061.537,285.724s-2.463,5.569-1.856,8.173c.273,1.168,4.624,1.274,5.163,0S1063.562,283.121,1061.537,285.724Z" transform="translate(-1033.47 -241.282)" fill="#dd5136"/>
        <path id="Path_139" data-name="Path 139" d="M1021.943,304.35s15.6-4.418,20.221-4.418,19.222,3.67,20,5.671-4.341,17.933-20,18.011C1031.631,323.667,1021.292,313.488,1021.943,304.35Z" transform="translate(-1013.371 -249.103)" fill="#f9f7dc"/>
        <g id="Group_34" data-name="Group 34" transform="translate(44.41 39.939)">
          <path id="Path_140" data-name="Path 140" d="M1098.808,292.15s4.182-15.406,5.045-15.566l.209,1.227s-3.758,10.5-4.357,14.339Z" transform="translate(-1098.808 -276.584)" fill="#f9f7dc"/>
          <path id="Path_141" data-name="Path 141" d="M1104.44,305.451l2.44-4.657-.143,1.585-2.008,3.482Z" transform="translate(-1101.813 -289.501)" fill="#f9f7dc"/>
        </g>
        <g id="Group_35" data-name="Group 35" transform="translate(7.921 39.939)">
          <path id="Path_142" data-name="Path 142" d="M1025.834,292.15s-4.182-15.406-5.045-15.566l-.209,1.227s3.758,10.5,4.356,14.339Z" transform="translate(-1020.58 -276.584)" fill="#f9f7dc"/>
          <path id="Path_143" data-name="Path 143" d="M1023.42,305.451l-2.44-4.657.143,1.585,2.008,3.482Z" transform="translate(-1020.793 -289.501)" fill="#f9f7dc"/>
        </g>
        <path id="Path_144" data-name="Path 144" d="M1017.347,253.591a4.125,4.125,0,0,0,1.8-2.8c.5-2.139,3.194-15.64,3.194-15.64s-7.179,1.943-7.079,2.455S1015.242,252.948,1017.347,253.591Z" transform="translate(-1009.822 -214.541)" fill="#171641"/>
        <path id="Path_145" data-name="Path 145" d="M1104.613,253.591a4.124,4.124,0,0,1-1.8-2.8c-.5-2.139-3.193-15.64-3.193-15.64s7.179,1.943,7.079,2.455S1106.717,252.948,1104.613,253.591Z" transform="translate(-1054.829 -214.541)" fill="#171641"/>
        <path id="Path_146" data-name="Path 146" d="M1055.391,214.031s-9.344,4.243-16.887,4.12-2.036-5.282-2.036-5.282-14.727,12.1-18.08,7.925,3.951-9.218,3.951-9.218-14.065,13.1-17.929,5.048,6.951-20.662,13.847-21.522-14.119-2.22,5.758-3.974c18.8-1.658,26.543,9.635,27.18,10.268.73.726,1.463-3.88,3.9-3.88s-1.484,5.4-1.484,5.4,4.4-.15,4.884,2.382-4.884,0-4.884,0S1056.473,212,1055.391,214.031Z" transform="translate(-1003.599 -190.962)" fill="#171641"/>
      </g>
      <g id="Group_482-2" data-name="Group 482-2" transform="translate(44.104 42.798)">
        <ellipse id="Ellipse_71-2" data-name="Ellipse 71-2" cx="0.358" cy="0.485" rx="0.358" ry="0.485" transform="translate(0 0.166) rotate(-13.386)" fill="#fff"/>
      </g>
      <g id="Group_482-2-2" data-name="Group 482-2" transform="translate(62.296 42.798)">
        <ellipse id="Ellipse_71-2-2" data-name="Ellipse 71-2" cx="0.358" cy="0.485" rx="0.358" ry="0.485" transform="translate(0 0.166) rotate(-13.386)" fill="#fff"/>
      </g>
    </g>
    <g id="Group_38" data-name="Group 38" transform="translate(974.258 313.656)">
      <path id="Path_147" data-name="Path 147" d="M1001.83,462.943q1.443,2.892,3.011,5.722" transform="translate(-1001.83 -458.771)" fill="#423447"/>
      <path id="Path_148" data-name="Path 148" d="M1009.768,454c.233,4.962.46,9.99-.612,14.845-.539,2.437-1.4,4.794-2.041,7.207-2.242,8.418-1.793,17.27-1.329,25.959.335,6.275.626,11.711.961,17.986" transform="translate(-1003.739 -453.999)" fill="#423447"/>
      <path id="Path_149" data-name="Path 149" d="M1132.023,500.041a374.4,374.4,0,0,1,1.744,43.379" transform="translate(-1071.294 -478.565)" fill="#423447"/>
    </g>
    <g id="Group_482-2-3" data-name="Group 482-2" transform="translate(1012.683 233.802)">
      <ellipse id="Ellipse_71-2-3" data-name="Ellipse 71-2" cx="0.358" cy="0.485" rx="0.358" ry="0.485" transform="translate(0 0.166) rotate(-13.386)" fill="#fff"/>
    </g>
  </g>
</svg>
